<svg width="148" height="24" viewBox="0 0 148 24" fill="none" xmlns="http://www.w3.org/2000/svg">
<g id="Group 79">
<g id="HONAM">
<path id="Vector" d="M88.1255 1.13184H92.929L99.3838 16.9235H99.654L106.109 1.13184H110.912V22.8679H107.16V7.91685H106.949L100.915 22.8079H98.1229L92.0884 7.85681H91.9083V22.8679H88.1255V1.13184Z" fill="#A6B200"/>
<path id="Vector_2" d="M69.5718 22.8679H65.3987L73.0543 1.13184H77.8579L85.5436 22.8679H81.3705L79.5692 17.4939H71.3731L69.5718 22.8679ZM72.4239 14.3416H78.5184L75.5462 5.57512H75.3661L72.4239 14.3416Z" fill="#A6B200"/>
<path id="Vector_3" d="M62.7868 1.13184V22.8679H59.3042L49.0066 8.00692H48.8265V22.8679H44.9236V1.13184H48.4662L58.7038 15.9928H58.9139V1.13184H62.7868Z" fill="#A6B200"/>
<path id="Vector_4" d="M41.4408 12C41.4408 19.0252 37.1777 23.1683 31.4735 23.1683C25.7693 23.1683 21.5061 18.9952 21.5061 12C21.5061 4.97485 25.7693 0.831787 31.4735 0.831787C37.1777 0.831787 41.4408 4.97485 41.4408 12ZM37.5079 12C37.5079 7.04638 35.0161 4.34439 31.4735 4.34439C27.9309 4.34439 25.439 7.04638 25.439 12C25.439 16.9537 27.9309 19.6557 31.4735 19.6557C35.0161 19.6557 37.5079 16.9537 37.5079 12Z" fill="#A6B200"/>
<path id="Vector_5" d="M0.0703125 22.8679V1.13184H3.9732V10.3487H14.0907V1.13184H18.0236V22.8679H14.0907V13.6211H3.9732V22.8679H0.0703125Z" fill="#A6B200"/>
</g>
<path id="Vector 8 (Stroke)" fill-rule="evenodd" clip-rule="evenodd" d="M138.366 7.83816C137.328 8.74722 136.036 10.5053 134.574 13.2174L132.29 17.4522L130.279 13.0799C129.251 10.8454 128.3 9.28736 127.457 8.24627C126.605 7.19515 125.961 6.79325 125.578 6.65389C125.184 6.51056 124.483 6.45323 123.244 8.01976C122.037 9.54643 120.903 11.9861 119.979 14.802C119.068 17.5752 118.426 20.5089 118.108 22.8681L113.344 22.2188C113.701 19.5707 114.408 16.346 115.414 13.2844C116.405 10.2653 117.753 7.19373 119.482 5.00744C121.18 2.86101 123.87 0.889073 127.212 2.10426C128.697 2.64416 130.008 3.7398 131.182 5.18884C131.661 5.77949 132.134 6.44971 132.603 7.20117C133.451 5.99107 134.32 4.96811 135.21 4.18896C136.068 3.43775 137.076 2.79602 138.227 2.52931C139.451 2.2454 140.69 2.42449 141.802 3.08606C143.799 4.27373 145.024 6.78909 145.884 9.7025C146.79 12.7759 147.474 16.9631 147.93 22.3379L143.139 22.749C142.696 17.5202 142.048 13.7014 141.275 11.079C140.454 8.29651 139.651 7.4261 139.356 7.25055C139.339 7.2407 139.337 7.23645 139.334 7.23583C139.331 7.23519 139.327 7.23846 139.306 7.24345C139.189 7.27047 138.875 7.39217 138.366 7.83816Z" fill="#A6B200"/>
</g>
</svg>
