<svg width="14" height="49" viewBox="0 0 14 49" fill="none" xmlns="http://www.w3.org/2000/svg">
<path fill-rule="evenodd" clip-rule="evenodd" d="M10.5839 15.3589C10.4129 17.369 9.98396 19.6016 9.47894 22.1435L9.39681 22.5569L9.47081 22.9724C11.4592 34.1357 10.2646 38.77 8.51319 40.9706C7.61883 42.0943 6.42569 42.7949 4.93766 43.3361C4.19325 43.6069 3.40636 43.8272 2.56838 44.0484C2.39602 44.0939 2.2204 44.1397 2.04251 44.1861C1.3759 44.36 0.677533 44.5422 0 44.7476L0.843102 48.5C1.45959 48.3131 2.08426 48.1501 2.74266 47.9783C2.92836 47.9298 3.11674 47.8806 3.30838 47.8301C4.15977 47.6053 5.05601 47.3569 5.93536 47.037C7.69485 46.3971 9.51174 45.4289 10.9648 43.6031C13.872 39.9504 14.737 33.6738 12.8138 22.6042C13.2808 20.2447 13.7216 17.9139 13.9065 15.7403C14.1028 13.4326 14.0293 11.1281 13.3039 9.00083C11.7898 4.56052 7.82541 1.86147 0.692232 0.5L0.150871 4.32679C6.98314 5.63083 9.36242 7.97331 10.1998 10.4289C10.6501 11.7496 10.7543 13.3567 10.5839 15.3589Z" fill="#BECA16"/>
</svg>
