<svg width="14" height="49" viewBox="0 0 14 49" fill="none" xmlns="http://www.w3.org/2000/svg">
<path id="Vector 8 (Stroke)" fill-rule="evenodd" clip-rule="evenodd" d="M3.41608 15.3589C3.58708 17.369 4.01604 19.6016 4.52106 22.1435L4.60319 22.5569L4.52919 22.9724C2.54079 34.1357 3.73538 38.77 5.48681 40.9706C6.38117 42.0943 7.57431 42.7949 9.06234 43.3361C9.80675 43.6069 10.5936 43.8272 11.4316 44.0484C11.604 44.0939 11.7796 44.1397 11.9575 44.1861C12.6241 44.36 13.3225 44.5422 14 44.7476L13.1569 48.5C12.5404 48.3131 11.9157 48.1501 11.2573 47.9783C11.0716 47.9298 10.8833 47.8807 10.6916 47.8301C9.84023 47.6053 8.94399 47.3569 8.06464 47.037C6.30515 46.3971 4.48826 45.4289 3.03516 43.6031C0.128023 39.9504 -0.737037 33.6738 1.18623 22.6042C0.719152 20.2447 0.278429 17.9139 0.0935152 15.7403C-0.102802 13.4326 -0.029285 11.1281 0.696111 9.00083C2.21022 4.56052 6.17459 1.86147 13.3078 0.5L13.8491 4.32679C7.01686 5.63083 4.63758 7.97331 3.80024 10.4289C3.34991 11.7496 3.24574 13.3567 3.41608 15.3589Z" fill="#BECA16"/>
</svg>
