<svg width="148" height="24" viewBox="0 0 148 24" fill="none" xmlns="http://www.w3.org/2000/svg">
<g id="Group 79">
<g id="HONAM">
<path id="Vector" d="M88.1255 1.13187H92.929L99.3838 16.9235H99.654L106.109 1.13187H110.912V22.8679H107.16V7.91689H106.949L100.915 22.8079H98.1229L92.0884 7.85684H91.9083V22.8679H88.1255V1.13187Z" fill="#A6B200"/>
<path id="Vector_2" d="M69.5718 22.8679H65.3987L73.0543 1.13187H77.8579L85.5436 22.8679H81.3705L79.5692 17.494H71.3731L69.5718 22.8679ZM72.4239 14.3416H78.5184L75.5462 5.57515H75.3661L72.4239 14.3416Z" fill="#A6B200"/>
<path id="Vector_3" d="M62.7868 1.13187V22.8679H59.3042L49.0066 8.00695H48.8265V22.8679H44.9236V1.13187H48.4662L58.7038 15.9929H58.9139V1.13187H62.7868Z" fill="#A6B200"/>
<path id="Vector_4" d="M41.4408 11.9999C41.4408 19.0251 37.1777 23.1682 31.4735 23.1682C25.7693 23.1682 21.5061 18.9951 21.5061 11.9999C21.5061 4.97471 25.7693 0.831642 31.4735 0.831642C37.1777 0.831642 41.4408 4.97471 41.4408 11.9999ZM37.5079 11.9999C37.5079 7.04624 35.0161 4.34424 31.4735 4.34424C27.9309 4.34424 25.439 7.04624 25.439 11.9999C25.439 16.9536 27.9309 19.6556 31.4735 19.6556C35.0161 19.6556 37.5079 16.9536 37.5079 11.9999Z" fill="#A6B200"/>
<path id="Vector_5" d="M0.0703125 22.8679V1.13187H3.9732V10.3487H14.0907V1.13187H18.0236V22.8679H14.0907V13.6211H3.9732V22.8679H0.0703125Z" fill="#A6B200"/>
</g>
<path id="Vector 8 (Stroke)" fill-rule="evenodd" clip-rule="evenodd" d="M138.366 7.83815C137.328 8.7472 136.036 10.5052 134.574 13.2174L132.29 17.4522L130.279 13.0799C129.251 10.8454 128.3 9.28734 127.457 8.24626C126.605 7.19513 125.961 6.79323 125.578 6.65388C125.184 6.51055 124.483 6.45321 123.244 8.01974C122.037 9.54642 120.903 11.9861 119.979 14.8019C119.068 17.5752 118.426 20.5089 118.108 22.868L113.344 22.2188C113.701 19.5707 114.408 16.346 115.414 13.2844C116.405 10.2653 117.753 7.19371 119.482 5.00743C121.18 2.861 123.87 0.889058 127.212 2.10424C128.697 2.64415 130.008 3.73979 131.182 5.18883C131.661 5.77947 132.134 6.4497 132.603 7.20116C133.451 5.99105 134.32 4.96809 135.21 4.18894C136.068 3.43774 137.076 2.79601 138.227 2.5293C139.451 2.24538 140.69 2.42447 141.802 3.08604C143.799 4.27371 145.024 6.78908 145.884 9.70248C146.79 12.7759 147.474 16.9631 147.93 22.3379L143.139 22.7489C142.696 17.5202 142.048 13.7014 141.275 11.079C140.454 8.2965 139.651 7.42608 139.356 7.25054C139.339 7.24069 139.337 7.23643 139.334 7.23582C139.331 7.23518 139.327 7.23844 139.306 7.24343C139.189 7.27046 138.875 7.39216 138.366 7.83815Z" fill="#A6B200"/>
</g>
</svg>
